<svg width="56" height="66" viewBox="0 0 56 66" fill="none" xmlns="http://www.w3.org/2000/svg">
<path d="M18.6794 0C19.0668 0 19.4526 0 19.8401 0C19.9158 0.0378861 19.9882 0.0929931 20.0691 0.110214C24.104 0.985038 28.1612 1.34323 32.2615 0.626842C33.2397 0.456355 34.2075 0.211818 35.1805 0C35.6093 0 36.0398 0 36.4686 0C36.5426 0.0378861 36.6115 0.0998814 36.6907 0.111936C38.5782 0.385749 40.4621 0.709503 42.3582 0.910987C46.1812 1.3174 47.626 4.12097 47.5692 6.85221C47.4711 11.619 47.5399 16.3874 47.5451 21.1559C47.5451 21.5623 47.5417 21.9774 47.614 22.3752C48.0497 24.7913 49.4291 26.4307 51.7108 27.3331C53.9668 28.2234 55.1499 29.9748 55.1516 32.4029C55.1533 41.8107 55.1568 51.2185 55.1516 60.6263C55.1499 63.7467 52.9043 65.9958 49.8028 65.9975C43.7238 66.001 37.6465 65.9992 31.5675 65.9958C31.2265 65.9958 30.8804 65.9786 30.5429 65.9235C29.3839 65.734 28.4195 65.1657 27.6119 64.3409C25.5402 65.908 25.2629 65.9992 22.6212 65.9992C16.8867 65.9992 11.1521 66.001 5.41752 65.9992C2.25231 65.9992 0.00498269 63.776 0.0032606 60.628C-0.00190568 51.1772 -0.000183591 41.7263 0.0032606 32.2772C0.0032606 30.0247 1.23972 28.2165 3.32173 27.3796C6.22174 26.2154 7.60975 24.1644 7.60975 21.0319C7.60975 16.1136 7.60286 11.1953 7.61319 6.27703C7.61836 3.66289 9.38523 1.52061 11.9081 1.07459C13.1325 0.857603 14.369 0.718113 15.5968 0.526961C16.6249 0.36164 17.6513 0.175654 18.6794 0ZM52.4582 34.7312C52.4582 33.9097 52.46 33.1641 52.4582 32.4184C52.4548 31.0907 51.9743 30.3037 50.7344 29.8473C47.2592 28.5678 44.7484 25.134 44.8276 20.9785C44.9206 16.1274 44.8517 11.2728 44.8483 6.41996C44.8483 4.89763 44.063 3.95393 42.5786 3.7025C41.5436 3.52685 40.5035 3.37703 39.465 3.2272C38.6694 3.11354 37.8721 3.01711 37.1678 2.92411C36.7596 4.56183 36.4531 6.11688 35.9847 7.62199C34.4537 12.53 32.0135 17.0022 29.2926 21.335C29.0791 21.6743 28.943 22.1237 28.9396 22.5233C28.912 25.766 28.9241 29.0087 28.9241 32.2514C28.9241 32.4821 28.9241 32.7146 28.9241 33.0022C29.8299 33.0022 30.6634 33.0005 31.4969 33.0022C32.4682 33.0056 33.2672 33.4 33.789 34.2042C34.0628 34.6261 34.3539 34.7415 34.8257 34.7398C40.4518 34.726 46.0779 34.7312 51.704 34.7312H52.4582ZM18.056 2.89656C16.2581 3.1566 14.4757 3.38736 12.7037 3.67839C11.0195 3.95393 10.2997 4.84425 10.2979 6.53879C10.2979 11.4347 10.3048 16.3289 10.2893 21.2248C10.2876 21.9274 10.2446 22.649 10.0844 23.3309C9.34906 26.4565 7.47715 28.6264 4.4807 29.806C3.65927 30.1297 2.94287 30.6119 2.81716 31.5212C2.67251 32.5665 2.70006 33.6342 2.65184 34.7329C4.07773 34.7329 5.36414 34.7329 6.65226 34.7329C11.2468 34.7329 15.8414 34.7381 20.4359 34.7191C20.6891 34.7191 21.0455 34.5986 21.1747 34.4109C21.8394 33.4431 22.7194 32.9643 23.8956 32.9988C24.6568 33.0211 25.4214 33.0022 26.2187 33.0022V32.1308C26.2187 28.9966 26.2084 25.8607 26.229 22.7265C26.2325 22.1427 26.0861 21.6657 25.7761 21.168C22.2527 15.5281 19.1409 9.70916 18.0577 2.89656H18.056ZM2.69662 55.7838C2.69662 57.592 2.65184 59.3089 2.71211 61.0207C2.75517 62.2743 3.84353 63.2938 5.08171 63.2973C11.3312 63.311 17.5807 63.3093 23.8319 63.2973C24.9082 63.2955 26.0052 62.5086 26.1119 61.4701C26.2445 60.182 26.1429 58.8715 26.1429 57.4973C25.2543 57.4973 24.3778 57.5128 23.5012 57.4921C22.5782 57.4697 21.8325 57.0426 21.3417 56.2849C21.0817 55.8819 20.8113 55.7717 20.3584 55.7734C14.7099 55.7872 9.06147 55.7821 3.41301 55.7821H2.69662V55.7838ZM28.9844 57.5145C28.9568 57.6936 28.9293 57.7952 28.9293 57.8985C28.9344 58.9507 28.8965 60.0063 28.962 61.0534C29.0446 62.3587 30.0882 63.299 31.4091 63.3007C37.5948 63.3093 43.7806 63.3076 49.9664 63.3007C51.2407 63.3007 52.3532 62.3846 52.4186 61.1188C52.5099 59.3675 52.441 57.6092 52.441 55.8337C52.317 55.8131 52.2361 55.7872 52.1569 55.7872C46.2725 55.7838 40.3864 55.7803 34.502 55.7958C34.316 55.7958 34.0611 55.9491 33.9561 56.1093C33.3344 57.0443 32.4854 57.5196 31.3626 57.5145C30.5911 57.511 29.8196 57.5145 28.9827 57.5145H28.9844ZM2.72245 48.3719C4.10701 48.3719 5.4158 48.3719 6.72459 48.3719C11.2985 48.3719 15.8724 48.3753 20.4462 48.3598C20.6856 48.3598 21.0335 48.2651 21.1437 48.0946C21.8308 47.0321 22.7952 46.5861 24.0316 46.6222C24.7342 46.6429 25.4369 46.6257 26.1808 46.6257V43.8531C25.244 43.8531 24.3468 43.8755 23.453 43.8462C22.5282 43.8169 21.7912 43.3692 21.3159 42.6029C21.0662 42.2016 20.7941 42.131 20.3791 42.131C14.7099 42.1413 9.04081 42.1379 3.37168 42.1379H2.72072V48.3702L2.72245 48.3719ZM28.9827 43.8807V46.6498C29.8971 46.6498 30.7736 46.6343 31.6502 46.6532C32.5749 46.6722 33.3154 47.1044 33.808 47.8604C34.0663 48.2582 34.3298 48.3822 34.7861 48.3805C40.4329 48.365 46.0813 48.3702 51.7281 48.3702H52.4221V42.1379C50.588 42.1379 48.7902 42.1379 46.9906 42.1379C42.8886 42.1379 38.7883 42.1327 34.6862 42.15C34.4486 42.15 34.1059 42.2516 33.9939 42.4221C33.3206 43.4622 32.3735 43.9065 31.1628 43.8824C30.455 43.8686 29.749 43.8807 28.9827 43.8807ZM27.5395 18.9516C30.5188 14.8823 34.3108 5.85512 34.2247 3.1721C32.0153 3.35808 29.8041 3.69217 27.5929 3.69217C25.3628 3.69217 23.1327 3.36153 20.8337 3.16865C21.8411 8.91528 24.5724 13.9317 27.5395 18.9516ZM23.5804 35.7214C23.5426 35.823 23.4892 35.9022 23.4892 35.9814C23.4823 37.5709 23.4857 39.1604 23.4754 40.7499C23.472 41.1649 23.7303 41.177 24.0316 41.177C26.3943 41.1753 28.7571 41.1684 31.1215 41.1821C31.54 41.1839 31.6881 41.0392 31.6812 40.619C31.6622 39.3946 31.6743 38.1702 31.6743 36.9458C31.6743 36.5463 31.6743 36.1467 31.6743 35.7214H23.5804ZM27.5723 49.3294C26.3909 49.3294 25.2095 49.3431 24.0282 49.3225C23.6063 49.3156 23.4651 49.4689 23.4702 49.8856C23.4874 51.3459 23.4892 52.808 23.4702 54.2683C23.4651 54.6902 23.6132 54.828 24.0316 54.8246C26.3943 54.8091 28.7571 54.8091 31.1215 54.8246C31.5434 54.828 31.6846 54.6834 31.6794 54.2649C31.6622 52.8046 31.6622 51.3425 31.6794 49.8822C31.6846 49.4602 31.5365 49.3156 31.118 49.3225C29.9367 49.3414 28.7553 49.3294 27.574 49.3294H27.5723ZM2.72072 39.4153H20.7321V37.4745H2.72072V39.4153ZM52.4307 37.4796H34.421V39.4118H52.4307V37.4796ZM2.74483 51.1083V53.0336H20.7459V51.1083H2.74483ZM52.4324 51.1031H34.4227V53.0422H52.4324V51.1031Z" fill="#F58220"/>
</svg>
