<svg width="69" height="56" viewBox="0 0 69 56" fill="none" xmlns="http://www.w3.org/2000/svg">
<path d="M66.6954 0.657492C67.0199 0.391698 61.4802 -0.053159 60.7332 0.00559568H2.02051C0.313826 1.4213 -0.103052 3.25948 0.0200526 5.3075C0.0704137 6.14126 0.0200526 6.98341 0.0368397 7.81996C0.0760094 9.8372 0.982509 11.3984 2.72556 12.3553C3.47538 12.7665 3.61807 13.2282 3.61807 13.9864C3.59849 26.129 3.59849 38.2716 3.60968 50.4143C3.61248 53.7577 5.85914 55.996 9.18018 55.9988C25.7182 56.0016 42.259 55.9988 58.7971 55.9988C59.2475 55.9988 59.712 55.9904 60.1456 55.8896C62.7504 55.2881 64.348 53.2149 64.3508 50.4031C64.3592 38.2241 64.3592 26.0479 64.3452 13.8689C64.3452 13.1862 64.4571 12.7609 65.1621 12.4056C66.7177 11.6222 67.7837 10.2569 67.8425 8.53621C67.932 5.90624 68.5503 3.15317 66.6982 0.66029L66.6954 0.657492ZM28.7035 2.4593H39.2542V9.44551H28.7035V2.4593ZM3.60688 7.1289C3.60688 6.18602 3.5845 5.24315 3.61248 4.30308C3.64325 3.22031 4.28676 2.42013 5.31916 2.41454C11.8381 2.38096 18.3571 2.39775 24.9404 2.39775V9.52385H23.88C17.9122 9.52385 11.9444 9.52385 5.97665 9.52385C4.19443 9.52385 3.61248 8.9335 3.60688 7.13169V7.1289ZM60.7891 14.3054C60.7891 26.1346 60.7891 37.9639 60.7891 49.7932C60.7891 51.9027 60.2491 52.4371 58.1116 52.4371C42.0268 52.4371 25.9392 52.4371 9.85446 52.4371C7.71131 52.4371 7.16853 51.9055 7.16853 49.8043C7.16853 37.9751 7.16853 26.1458 7.16853 14.3165V13.1918H60.7891V14.3054ZM64.3424 7.69686C64.3032 8.72366 63.6429 9.49587 62.6693 9.49867C56.1475 9.52664 49.6285 9.51266 42.9977 9.51266V2.43412C43.3726 2.41733 43.7111 2.38656 44.0497 2.38656C49.9811 2.38656 55.9153 2.38376 61.8467 2.38656C63.7744 2.38656 64.3508 2.96011 64.3536 4.87104C64.3536 5.81391 64.3816 6.75678 64.3424 7.69686Z" fill="#F58220"/>
<path d="M27.4976 27.3629C27.4976 25.631 27.492 24.067 27.4976 22.5002C27.5116 19.915 28.9245 18.4993 31.5069 18.4769C32.5198 18.4685 33.5298 18.4601 34.5426 18.4797C36.7976 18.5273 38.2581 19.971 38.3001 22.226C38.3309 23.8936 38.3057 25.5611 38.3057 27.3629C39.8865 27.3629 41.3721 27.3629 42.8606 27.3629C45.8738 27.3657 47.1972 28.6863 47.2028 31.6967C47.2028 32.6396 47.228 33.5825 47.1916 34.5225C47.1105 36.7077 45.6416 38.1346 43.4369 38.1681C41.7694 38.1933 40.1047 38.1737 38.3057 38.1737C38.3057 39.7881 38.3057 41.3101 38.3057 42.8321C38.3001 45.6915 36.9347 47.0709 34.0809 47.0848C33.1045 47.0904 32.1253 47.1184 31.1516 47.0737C28.9497 46.9701 27.5424 45.5181 27.5004 43.3134C27.4697 41.7102 27.4836 40.1042 27.4725 38.5011C27.4725 38.4367 27.4305 38.3752 27.3605 38.1737C25.8525 38.1737 24.2941 38.1765 22.7385 38.1737C20.0106 38.1681 18.6173 36.786 18.5977 34.0665C18.5921 33.1936 18.5921 32.3234 18.5977 31.4505C18.6201 28.7898 20.019 27.3825 22.663 27.3685C24.227 27.3601 25.7882 27.3685 27.492 27.3685L27.4976 27.3629ZM43.5432 31.028C41.8254 31.028 40.1579 31.0476 38.4931 31.0224C36.7473 30.9945 35.3903 30.1159 34.9147 28.6387C34.7161 28.0232 34.6713 27.3405 34.6573 26.683C34.6209 25.1666 34.6461 23.6473 34.6461 22.1505H31.1572C31.1572 23.6697 31.1572 25.0966 31.1572 26.5263C31.1544 29.7019 29.8226 31.0224 26.6275 31.0252C25.1782 31.0252 23.7261 31.0252 22.2909 31.0252V34.5225C24.0143 34.5225 25.6511 34.4974 27.2906 34.5281C29.1456 34.5617 30.5585 35.527 30.9586 37.0742C31.1208 37.7065 31.1376 38.3836 31.1516 39.0439C31.1796 40.4931 31.16 41.9424 31.16 43.4029H34.6489C34.6489 41.7913 34.6405 40.2329 34.6489 38.6717C34.6629 35.9578 36.073 34.5477 38.7813 34.5225C39.6542 34.5141 40.5272 34.5225 41.4001 34.5225C42.1135 34.5225 42.827 34.5225 43.546 34.5225V31.028H43.5432Z" fill="#F58220"/>
<path d="M2.2863 0H65.8952C66.3372 0 66.6954 0.358123 66.6954 0.800182V1.14711C66.6954 1.39053 66.4995 1.58638 66.2561 1.58638H2.2863C2.04289 1.58638 1.84704 1.39053 1.84704 1.14711V0.439261C1.84704 0.195849 2.04289 0 2.2863 0Z" fill="#F58220"/>
</svg>
