<svg width="44" height="66" viewBox="0 0 44 66" fill="none" xmlns="http://www.w3.org/2000/svg">
<path d="M14.1782 0C14.4761 0.103327 14.7775 0.196321 15.0719 0.30998C16.9525 1.03843 18.1063 2.40924 18.6143 4.38795C19.7148 4.38795 20.8066 4.3845 21.9001 4.38795C24.9896 4.39828 27.2352 6.47342 27.4849 9.5474C27.6589 11.6845 28.3701 12.5146 30.4866 13.0588C30.7931 13.138 31.1014 13.2138 31.3993 13.2895C32.1811 11.5829 32.6444 11.316 34.5025 11.4693C34.9933 11.5106 35.4859 11.5571 35.9767 11.6105C37.8538 11.812 39.7343 11.9859 41.6045 12.2304C43.027 12.4164 43.814 13.5754 43.523 14.9669C43.2492 16.2671 42.9564 17.5621 42.6568 18.8554C42.3364 20.2366 41.1051 20.9719 39.7636 20.531C37.3423 19.7354 34.9331 18.9071 32.5256 18.0684C31.4131 17.6809 30.986 16.9645 30.9412 15.4939C30.4263 15.3578 29.8942 15.2132 29.3603 15.0754C27.0062 14.4606 25.3667 12.4078 25.2806 9.96587C25.2066 7.89072 23.9219 6.62325 21.8519 6.60258C20.779 6.59053 19.7079 6.60086 18.7142 6.60086C18.3543 7.3362 18.0185 7.99922 17.705 8.67601C17.6362 8.82239 17.6327 9.00838 17.631 9.17714C17.6241 10.2724 17.6413 11.3677 17.6189 12.4629C17.6121 12.8194 17.7412 12.983 18.0581 13.1346C22.7112 15.3647 25.2496 19.0586 25.2789 24.225C25.3478 36.9841 25.3065 49.7432 25.2978 62.5024C25.2978 64.6843 23.9288 66 21.7313 66C16.0398 66 10.3465 66 4.65487 66C2.48329 66 1.08149 64.6516 1.07977 62.4886C1.06943 49.7725 1.01432 37.0564 1.10387 24.3404C1.14004 19.1206 3.68705 15.3458 8.46247 13.1328C8.5589 13.0881 8.65018 13.0312 8.77761 12.9606C8.77761 11.6432 8.83789 10.3086 8.74661 8.98427C8.71217 8.49519 8.32298 8.03194 8.07499 7.51358C6.87296 8.47797 5.71914 9.40274 4.5636 10.3275C4.39656 10.4618 4.22607 10.5944 4.05041 10.715C3.45284 11.1249 2.82771 11.0749 2.44368 10.591C2.03554 10.0778 2.12681 9.45096 2.71749 8.95843C3.47695 8.32642 4.25534 7.71851 5.02513 7.09855C5.17151 6.97973 5.311 6.85229 5.60031 6.60086C4.82536 6.60086 4.21746 6.60086 3.60955 6.60086C2.92243 6.60086 2.23358 6.56986 1.54818 6.60947C0.898943 6.64736 0.375421 6.47859 0 5.93096V5.02857C0.442583 4.48955 1.0126 4.35523 1.69456 4.37761C3.0447 4.42067 4.39656 4.38967 5.74669 4.38967C6.42865 4.38967 7.10888 4.38967 7.76501 4.38967C8.45041 2.22841 9.54568 0.976438 11.2867 0.328924C11.6036 0.210098 11.9256 0.108493 12.2442 0C12.8883 0 13.5341 0 14.1782 0ZM23.0436 57.1569C23.0574 56.9606 23.0815 56.7936 23.0815 56.6265C23.0815 45.6928 23.0884 34.7574 23.0712 23.8237C23.0677 22.1395 22.558 20.5758 21.7107 19.1172C21.5264 18.7986 21.3129 18.6849 20.9461 18.6867C15.7901 18.6987 10.6341 18.6987 5.47976 18.6867C5.07851 18.6867 4.86669 18.833 4.67554 19.1671C3.72838 20.8307 3.31507 22.6079 3.31851 24.5246C3.33746 35.1587 3.32712 45.791 3.32712 56.425C3.32712 56.6558 3.32712 56.8883 3.32712 57.1587H23.0453L23.0436 57.1569ZM3.39084 59.4387C3.35984 59.5438 3.33746 59.5834 3.33573 59.623C3.33057 60.503 3.3254 61.383 3.3254 62.263C3.3254 63.4857 3.65088 63.806 4.89941 63.806C10.4377 63.806 15.9743 63.806 21.5126 63.806C21.7055 63.806 21.9466 63.868 22.0827 63.7767C22.4323 63.5408 22.9833 63.2567 23.0126 62.9519C23.1228 61.7929 23.0574 60.6167 23.0574 59.4405H3.39084V59.4387ZM11.0095 10.5721C11.0095 11.223 10.9768 11.7793 11.0164 12.3303C11.1197 13.7614 10.5221 14.6862 9.17025 15.2114C8.45558 15.4887 7.80978 15.9485 7.13299 16.3239C7.15538 16.3652 7.17777 16.4066 7.20188 16.4479H19.2016C19.2188 16.3962 19.236 16.3463 19.2532 16.2946C18.5041 15.8899 17.7791 15.4284 16.999 15.096C15.8676 14.6139 15.3475 13.7993 15.3664 12.5938C15.3768 11.9429 15.3681 11.2936 15.3681 10.5807C13.8854 11.1249 12.5025 11.1249 11.0077 10.5738L11.0095 10.5721ZM13.1914 8.77761C14.9944 8.77417 16.4737 7.30176 16.4806 5.50904C16.4875 3.73182 14.9703 2.19914 13.2086 2.20086C11.3763 2.20258 9.90387 3.68704 9.90904 5.52626C9.91421 7.34481 11.3659 8.78278 13.1914 8.77933V8.77761ZM40.4972 18.4456C40.802 17.0661 41.0862 15.778 41.3858 14.4193C38.7941 14.1489 36.2522 13.882 33.7069 13.615C33.5296 14.4658 33.3797 15.1925 33.2196 15.964C35.6512 16.7923 38.0346 17.6052 40.4972 18.4456Z" fill="#F58220"/>
<path d="M20.8944 34.6816C20.8944 37.6661 20.8961 40.6488 20.8944 43.6332C20.8944 45.3742 20.0712 46.2164 18.3491 46.2198C14.9152 46.2267 11.4796 46.2267 8.04571 46.2198C6.3546 46.2164 5.49354 45.3691 5.49182 43.6952C5.48493 37.6626 5.48493 31.6318 5.49182 25.5992C5.49354 23.9288 6.36321 23.0849 8.04916 23.0849C11.5054 23.0849 14.9617 23.0832 18.418 23.0849C20.0196 23.0849 20.8927 23.9443 20.8961 25.5372C20.903 28.5854 20.8978 31.6335 20.8978 34.6816H20.8944ZM7.74434 43.9346H18.6574V25.3478H7.74434V43.9346Z" fill="#F58220"/>
<path d="M13.1862 50.6284C11.1266 50.6284 9.06865 50.6319 7.009 50.6232C6.73519 50.6232 6.44243 50.6043 6.18928 50.5096C5.72258 50.3357 5.41088 49.9361 5.53315 49.4608C5.62614 49.0975 5.93268 48.7513 6.22716 48.4896C6.3856 48.3483 6.71624 48.3759 6.96939 48.3759C11.13 48.3707 15.2924 48.3707 19.453 48.3724C20.2607 48.3724 20.7377 48.6686 20.8651 49.2232C21.0477 50.0136 20.4983 50.6181 19.5546 50.6232C17.6465 50.6353 15.7367 50.6267 13.8268 50.6267C13.6116 50.6267 13.398 50.6267 13.1828 50.6267L13.1862 50.6284Z" fill="#F58220"/>
</svg>
