<svg width="54" height="66" viewBox="0 0 54 66" fill="none" xmlns="http://www.w3.org/2000/svg">
<path d="M29.7303 34.2218C29.7303 31.4977 29.7303 28.7755 29.7303 26.0515C29.7303 24.3113 29.846 22.5602 29.7046 20.831C29.4807 18.1015 32.0597 15.6399 35.2005 16.8386C35.4024 15.46 36.0265 14.344 37.2692 13.6538C38.0401 13.2261 38.8772 13.1123 39.7307 13.25C41.7242 13.5712 42.7118 14.992 42.9706 17.9161C44.3913 17.4168 45.7515 17.4737 46.963 18.4429C48.1837 19.4176 48.549 20.7411 48.415 22.1416C49.3309 22.1416 50.2304 21.9948 51.0601 22.1728C52.7727 22.54 53.9089 24.0782 53.9108 25.8294C53.9181 32.4504 53.9493 39.0714 53.8906 45.6906C53.8649 48.6257 52.9324 51.3149 51.0931 53.6351C50.7425 54.0793 50.559 54.5052 50.6104 55.0614C50.6434 55.4248 50.6306 55.7956 50.6104 56.1609C50.5755 56.8162 50.1404 57.209 49.4943 57.198C48.8812 57.187 48.4517 56.8015 48.4315 56.1793C48.4058 55.401 48.3948 54.619 48.4425 53.8444C48.459 53.5764 48.6187 53.2753 48.8004 53.0624C50.7205 50.8101 51.6842 48.1815 51.7062 45.2519C51.7521 38.8603 51.7246 32.4688 51.7191 26.0772C51.7191 24.9758 50.9958 24.1938 50.0395 24.2159C49.1052 24.2379 48.4278 24.996 48.4223 26.0735C48.4113 28.3643 48.415 30.6552 48.4223 32.946C48.4223 33.46 48.2424 33.9262 47.7468 34.0052C47.3503 34.0676 46.8364 33.9538 46.5151 33.7225C46.293 33.5628 46.2379 33.0708 46.2361 32.7276C46.2178 29.1537 46.2251 25.5797 46.2251 22.0058C46.2251 20.6089 45.6524 19.838 44.6024 19.8159C43.5323 19.7939 42.9247 20.5905 42.9247 22.0187C42.9247 25.6146 42.9412 29.2124 42.9008 32.8083C42.8971 33.1993 42.664 33.7298 42.3611 33.9482C41.6361 34.4696 40.7403 33.8822 40.7348 32.935C40.722 30.8956 40.7311 28.8581 40.7311 26.8188C40.7311 23.634 40.7403 20.4492 40.7256 17.2663C40.7201 15.8675 39.538 15.0305 38.3779 15.5867C37.651 15.9355 37.4215 16.5724 37.4234 17.3434C37.4325 20.2987 37.427 23.254 37.427 26.2093C37.427 28.3625 37.427 30.5157 37.427 32.6688C37.427 33.6325 37.0819 34.0859 36.344 34.0951C35.6043 34.1043 35.2335 33.6417 35.2335 32.6982C35.2335 28.6654 35.239 24.6344 35.2298 20.6016C35.2262 19.1698 34.0312 18.3144 32.8527 18.8981C32.1258 19.2579 31.9221 19.9059 31.9239 20.6713C31.9331 24.1076 31.9276 27.5438 31.9276 30.9801C31.9276 33.4086 31.9184 35.8371 31.9349 38.2656C31.9386 38.8805 31.777 39.3743 31.1584 39.5597C30.5142 39.7524 30.0791 39.4404 29.7487 38.8787C28.741 37.1624 27.7149 35.4571 26.6851 33.7555C26.4373 33.3462 26.1729 32.9368 25.8591 32.5789C25.2588 31.8942 24.6365 31.7731 23.9757 32.1457C23.2598 32.5495 22.99 33.2269 23.247 34.0767C23.9757 36.4814 24.7155 38.8805 25.4552 41.2833C26.228 43.7944 27.0081 46.3 27.7736 48.813C28.3371 50.6633 29.4275 52.0528 31.2117 52.8568C31.7312 53.0918 31.9404 53.4919 31.9349 54.061C31.9184 55.6194 31.9294 57.176 31.9294 58.7344C31.9294 58.9345 31.9294 59.1346 31.9294 59.4026H32.7297C38.2035 59.4026 43.6773 59.4026 49.1511 59.4026C50.2965 59.4026 50.6159 59.722 50.6195 60.8619C50.6195 61.4805 50.625 62.0991 50.6195 62.7177C50.5975 64.5441 49.1676 65.9887 47.3448 65.9924C42.5576 66.0016 37.7703 66.0034 32.9849 65.9924C31.2025 65.9887 29.7524 64.5405 29.7414 62.7599C29.7248 60.2396 29.7267 57.7193 29.745 55.2009C29.7487 54.7879 29.6386 54.5456 29.2751 54.3253C27.5423 53.2735 26.3675 51.7536 25.7654 49.8262C24.1997 44.8132 22.6578 39.791 21.1195 34.7688C20.556 32.9277 21.2554 31.1269 22.8542 30.2128C24.4622 29.2932 26.2042 29.6199 27.5423 31.1288C27.9186 31.5546 28.227 32.0429 28.539 32.522C28.9098 33.0929 29.2494 33.6839 29.6019 34.2676C29.6477 34.2548 29.6918 34.2401 29.7377 34.2273L29.7303 34.2218ZM31.9276 61.62C31.9276 61.9926 31.9129 62.3084 31.9312 62.6241C31.9735 63.3528 32.3736 63.7897 33.0987 63.7915C37.8088 63.8044 42.5208 63.8044 47.231 63.7915C47.9671 63.7915 48.3691 63.3693 48.4168 62.6424C48.4388 62.3102 48.4205 61.9743 48.4205 61.6182H31.9294L31.9276 61.62Z" fill="#F58220"/>
<path d="M14.2599 3.61671C15.1061 0.938562 16.5452 -0.21787 18.6947 0.0336082C20.7414 0.274072 21.8409 1.77376 22.074 4.72358C23.493 4.21512 24.855 4.2812 26.0628 5.24122C27.2817 6.21042 27.6616 7.53389 27.5111 9.06662C28.0967 8.97668 28.6253 8.83533 29.154 8.82799C31.5861 8.79312 33.4695 11.0583 33.0106 13.4445C32.9004 14.0136 32.5095 14.3018 31.9312 14.3036C31.3512 14.3036 30.9767 14.0099 30.8537 13.4445C30.806 13.2261 30.8409 12.9875 30.8317 12.7599C30.7895 11.7319 30.1066 11.0142 29.176 11.0142C28.2472 11.0142 27.5423 11.7356 27.535 12.7654C27.5184 15.2857 27.5295 17.8041 27.5295 20.3244C27.5295 20.53 27.5386 20.7374 27.5258 20.943C27.4872 21.6056 27.0706 22.0058 26.4318 22.0076C25.7911 22.0076 25.3543 21.6075 25.3414 20.9448C25.3212 19.8233 25.3341 18.6999 25.3341 17.5783C25.3341 14.5312 25.3469 11.4859 25.3286 8.43884C25.3194 7.02359 24.0473 6.20308 22.8927 6.84003C22.2099 7.21633 22.0281 7.84961 22.03 8.58386C22.0373 12.6387 22.0355 16.6936 22.03 20.7466C22.03 21.6442 21.5986 22.0902 20.8111 22.0187C20.2274 21.9654 19.9007 21.6332 19.8438 21.0513C19.8236 20.8475 19.8383 20.6401 19.8383 20.4327C19.8383 15.0727 19.8401 9.71275 19.8328 4.35279C19.8328 4.0132 19.8071 3.66076 19.7134 3.33953C19.5097 2.64935 18.8544 2.20696 18.155 2.22349C17.4722 2.24001 16.8536 2.67504 16.6627 3.3377C16.5691 3.66076 16.5434 4.0132 16.5434 4.35095C16.536 9.643 16.5379 14.9332 16.5379 20.2253C16.5379 20.4309 16.5415 20.6383 16.536 20.8439C16.5122 21.6038 16.0991 22.026 15.4053 22.0095C14.75 21.993 14.348 21.5708 14.3443 20.842C14.3351 18.3456 14.3406 15.8492 14.3406 13.3509C14.3406 11.3354 14.3572 9.31993 14.3351 7.30444C14.3204 5.92957 13.0814 5.11823 11.9323 5.71297C11.2403 6.07091 11.0329 6.69502 11.0347 7.43477C11.0421 10.4121 11.0402 13.3913 11.0347 16.3687C11.0347 17.1616 10.6584 17.5893 9.97923 17.6095C9.33127 17.6297 8.85401 17.2369 8.85217 16.5871C8.83749 13.3124 8.78976 10.034 8.87053 6.7611C8.9256 4.56205 11.3302 2.87696 13.4779 3.39827C13.7422 3.46252 14.001 3.54512 14.2617 3.62038L14.2599 3.61671Z" fill="#F58220"/>
<path d="M11.0347 46.1972C11.545 46.1972 11.9764 46.1972 12.4059 46.1972C15.1777 46.1972 17.9476 46.1936 20.7194 46.1991C21.6023 46.1991 22.0447 46.5937 22.0263 47.3298C22.0098 48.031 21.5729 48.3963 20.723 48.3981C17.7695 48.4018 14.8142 48.3981 11.8607 48.3981C11.6129 48.3981 11.3651 48.3981 11.0347 48.3981C11.0347 48.7377 11.0274 49.0259 11.0347 49.3141C11.0586 50.1879 11.4642 50.5935 12.371 50.599C14.4324 50.61 16.4938 50.6027 18.5533 50.6027C20.042 50.6027 21.5307 50.5972 23.0194 50.6045C23.7903 50.6082 24.2235 51.0102 24.2235 51.6949C24.2235 52.3777 23.7903 52.7926 23.0212 52.7926C19.3573 52.7981 15.6935 52.8091 12.0296 52.7871C10.2876 52.7779 8.85401 51.3167 8.84299 49.5711C8.82647 47.0508 8.83015 44.5323 8.84483 42.0121C8.84667 41.6119 8.76957 41.3568 8.38776 41.1328C6.63476 40.1012 5.47649 38.563 4.87258 36.6411C3.29396 31.6079 1.74838 26.5654 0.210143 21.5194C-0.23958 20.0472 0.0118981 18.687 1.16466 17.6114C2.22013 16.6256 3.48486 16.2347 4.90195 16.6752C5.95926 17.0038 6.67698 17.7968 7.24051 18.7054C8.44467 20.6493 9.63414 22.6042 10.7814 24.583C11.0879 25.1098 11.4569 25.3356 12.0425 25.4366C15.4842 26.0258 18.0063 28.5112 18.6451 31.9107C18.7167 32.2889 18.7314 32.6854 18.7185 33.0708C18.7002 33.6949 18.2798 34.0841 17.6667 34.0988C17.0482 34.1135 16.6186 33.7482 16.5379 33.1387C16.079 29.6199 14.1516 27.7806 10.607 27.5071C10.0582 27.4649 9.74795 27.162 9.48729 26.7251C8.23357 24.6234 6.97802 22.5216 5.70778 20.4309C5.44896 20.005 5.15526 19.5828 4.8065 19.2285C4.22461 18.6375 3.63538 18.5879 3.00944 18.9807C2.38534 19.3735 2.09347 20.0472 2.30824 20.7558C3.04248 23.1824 3.79692 25.6018 4.54217 28.0248C5.32781 30.5781 6.11712 33.1314 6.89358 35.6866C7.44243 37.4928 8.53828 38.8273 10.2582 39.6258C10.7961 39.8754 11.0402 40.2664 11.0347 40.8703C11.0164 42.6105 11.0292 44.3488 11.0292 46.1972H11.0347Z" fill="#F58220"/>
<path d="M41.269 39.6074C42.8953 39.6074 44.5198 39.6019 46.1462 39.6074C48.1048 39.6166 49.5035 41.0227 49.52 42.9886C49.5255 43.7669 49.5384 44.547 49.5127 45.3235C49.4558 46.9939 47.901 48.444 46.2471 48.3945C45.5716 48.3743 45.1531 47.987 45.1274 47.3573C45.0999 46.7057 45.4431 46.3092 46.126 46.2046C47.0181 46.0651 47.3136 45.7365 47.3246 44.8444C47.332 44.2258 47.3411 43.6072 47.3209 42.9904C47.2952 42.2525 46.9006 41.8157 46.1682 41.812C42.9173 41.7936 39.6665 41.7936 36.4156 41.8102C35.6502 41.8138 35.2592 42.2489 35.2353 43.0345C35.217 43.6531 35.2225 44.2717 35.2353 44.8885C35.2518 45.7824 35.6502 46.1862 36.5459 46.1936C38.2861 46.2046 40.0263 46.1881 41.7664 46.2046C42.631 46.2138 43.1505 46.915 42.8733 47.6767C42.6989 48.1558 42.3391 48.4 41.8196 48.3981C39.9198 48.3945 38.0181 48.4238 36.1201 48.3853C34.4937 48.3522 33.0913 46.904 33.0454 45.2684C33.0234 44.4681 33.0308 43.6659 33.0418 42.8638C33.0656 41.0447 34.5011 39.6203 36.333 39.6093C37.9814 39.5982 39.6298 39.6074 41.2781 39.6074H41.269Z" fill="#F58220"/>
</svg>
