<svg width="48" height="66" viewBox="0 0 48 66" fill="none" xmlns="http://www.w3.org/2000/svg">
<path d="M47.1391 19.8637C46.1705 17.7532 43.9346 16.6112 41.7022 17.0852C39.7033 17.5111 38.3861 18.7595 37.895 20.6983C37.3901 22.6921 37.9843 24.4162 39.6621 25.8227C39.8527 25.9824 40.0502 26.2863 40.0519 26.5199C40.0708 30.1571 40.0897 34.9483 40.0536 39.7566C40.0433 41.2575 39.2722 42.3566 37.8228 42.937C36.425 43.4969 35.1439 43.2307 34.0122 42.1436C33.2927 41.4533 32.9733 40.5706 32.975 39.2844C32.9887 30.4576 32.987 21.7527 32.9819 12.8693C32.9801 9.50169 31.1289 7.14216 27.9039 6.39343C27.6119 6.32645 27.49 6.2114 27.3818 5.90401C26.9147 4.57827 25.6525 3.89823 24.3148 4.25027C23.3668 4.49928 22.7435 5.15012 22.4103 6.23887H15.8263V5.23599H15.9671C16.1285 5.23599 16.2865 5.23599 16.4428 5.23599C16.6557 5.23255 16.8704 5.23599 17.085 5.23599C17.5728 5.23942 18.0759 5.24114 18.5688 5.19305C19.3158 5.12093 19.9649 4.75 20.3959 4.14723C20.8373 3.53245 20.9884 2.74594 20.8098 1.9869C20.5591 0.917041 19.7726 0.401859 18.9586 0.0051684L18.9414 -0.00341797H5.03665L4.83229 0.084163C4.71552 0.139116 4.59874 0.194069 4.48369 0.250739C3.39837 0.781376 2.83167 1.90791 3.04118 3.11859C3.23695 4.2434 4.20205 5.11578 5.33717 5.19305C5.97256 5.23599 6.61998 5.22568 7.24678 5.21538C7.50437 5.21023 7.76025 5.20679 8.01612 5.20679C8.02471 5.24629 8.03501 5.27892 8.04188 5.30983C8.06077 5.38024 8.07279 5.4266 8.07279 5.46782V6.54283C8.07966 8.42325 8.08309 10.3672 8.05905 12.2785C8.05733 12.4434 7.84439 12.6924 7.66923 12.7886C6.53755 13.4136 6.00347 14.3066 6.03782 15.5156C6.04297 15.7217 6.03782 15.9312 6.03267 16.1355C6.02408 16.4618 6.0155 16.7984 6.05156 17.1281C6.12025 17.7549 5.86266 18.0142 5.33202 18.2993C1.63645 20.2776 -0.106587 23.1128 0.00503587 26.9698C0.0840305 29.7329 0.0651405 32.5458 0.0462504 35.2677C0.0376641 36.4629 0.0290777 37.6993 0.0290777 38.9135V44.2954C0.0290777 50.5755 0.0290777 56.8555 0.0290777 63.1356C0.0290777 64.099 0.113224 64.3051 1.07146 64.5043C1.39088 64.5712 1.71029 64.6382 2.0297 64.7069C3.56666 65.0332 5.15514 65.3698 6.73332 65.5999C8.57767 65.8678 10.4461 66.0017 12.3351 66.0017C15.9963 66.0017 19.7314 65.5003 23.4956 64.4991C24.392 64.2604 24.5157 64.099 24.5157 63.1751V52.0884C24.5157 43.4659 24.5157 34.8435 24.5174 26.2211C24.5174 24.4214 23.9662 22.7762 22.8808 21.332C21.8453 19.9565 20.4578 18.8591 18.7594 18.0743C18.4434 17.9284 18.3421 17.7669 18.3558 17.4321C18.373 16.989 18.3696 16.5374 18.3661 16.1012C18.3644 15.8161 18.361 15.5293 18.3661 15.2443C18.3764 14.3753 18.0004 13.6523 17.2791 13.1526C16.9648 12.9362 16.6231 12.7748 16.2625 12.6031C16.1182 12.5344 15.9705 12.4657 15.8246 12.3919V11.4405H22.4103C22.7933 12.7078 23.6158 13.4205 24.7939 13.5029C25.9822 13.5837 26.8718 12.9929 27.4419 11.7427C27.8335 12.0587 27.8335 12.4743 27.8317 12.9139V19.7263C27.8283 26.2674 27.8266 33.0318 27.8352 39.6845C27.8386 42.0028 28.7505 44.1855 30.4042 45.8289C32.0494 47.4638 34.2217 48.3619 36.5263 48.3619C36.5418 48.3619 36.5572 48.3619 36.5727 48.3619C41.3244 48.3378 45.2037 44.4602 45.2192 39.7206C45.2312 35.7176 45.2295 31.4914 45.214 26.8015C45.214 26.3739 45.293 26.0648 45.7051 25.7505C47.4791 24.3956 48.0818 21.9227 47.1391 19.8689V19.8637ZM42.6724 18.6136C43.5362 18.6136 44.3536 18.9519 44.977 19.5684C45.609 20.1934 45.9576 21.0229 45.9593 21.9004C45.9593 22.7728 45.6158 23.6005 44.9856 24.2273C44.3588 24.8524 43.5328 25.1976 42.6587 25.1976H42.645C41.764 25.1941 40.9311 24.8404 40.3043 24.2016C39.6827 23.5696 39.3461 22.7436 39.3564 21.8764C39.3787 20.0646 40.8212 18.6307 42.6415 18.6136C42.6518 18.6136 42.6621 18.6136 42.6724 18.6136ZM27.7596 9.97395C27.6858 9.9396 27.5999 9.76787 27.593 9.64423C27.5759 9.24754 27.5776 8.8457 27.581 8.41981C27.581 8.28586 27.5827 8.1502 27.5827 8.00938C28.3504 8.10898 29.0132 8.41294 29.6606 8.96247C30.7855 9.91727 31.3316 11.1554 31.3298 12.7473C31.3144 21.7785 31.3195 30.7461 31.3247 39.42C31.3247 41.9393 32.805 43.9846 35.0907 44.6303C36.674 45.0785 38.3226 44.7814 39.6105 43.8163C40.9397 42.8202 41.7125 41.2558 41.7279 39.5231C41.7468 37.428 41.7417 35.3003 41.7382 33.2413C41.7365 32.314 41.7348 31.3884 41.7348 30.461V29.8119H43.5448C43.55 29.8239 43.5551 29.8342 43.5603 29.8445C43.5774 29.8772 43.5929 29.9098 43.5929 29.927C43.5895 30.9522 43.5929 31.9946 43.598 33.0026C43.6083 35.3862 43.6186 37.8505 43.5208 40.2684C43.3885 43.5432 40.598 46.4145 37.3008 46.6687C33.6155 46.952 30.4798 44.7659 29.6847 41.3468C29.5318 40.6908 29.4563 39.9472 29.4546 39.0749C29.4426 32.0014 29.4305 22.6663 29.4563 13.1749C29.4597 11.9797 29.2605 10.6643 27.7579 9.97738L27.7596 9.97395ZM43.5723 28.1376H41.788V26.774C41.8653 26.7826 41.9409 26.7929 42.0147 26.8015C42.2483 26.8307 42.4681 26.8582 42.6896 26.8582C42.9163 26.8582 43.1241 26.8324 43.3525 26.8032C43.4246 26.7946 43.4984 26.7843 43.5723 26.7775V28.1376ZM25.9084 9.44159C25.9101 9.89495 25.9118 10.362 25.905 10.8223C25.8947 11.4491 25.5615 11.8338 25.012 11.8544C24.7303 11.8664 24.4916 11.7822 24.3165 11.6157C24.1293 11.4371 24.028 11.1743 24.0228 10.8532C24.0039 9.49311 24.0039 8.13474 24.0228 6.81416C24.028 6.49303 24.1293 6.22857 24.3182 6.04997C24.4831 5.8937 24.7046 5.81127 24.9622 5.81127C24.9776 5.81127 24.9948 5.81127 25.012 5.81127C25.5598 5.8336 25.8929 6.21998 25.9032 6.84679C25.9101 7.30702 25.9084 7.77412 25.9067 8.22576C25.9067 8.4284 25.9067 8.63104 25.9067 8.83367C25.9067 9.03631 25.9067 9.23895 25.9067 9.43987L25.9084 9.44159ZM22.3348 7.9115V9.7507H15.8332V7.9115H22.3348ZM1.68796 54.4513V37.9724H22.8207V54.4513H1.68796ZM22.8293 56.1291V57.7193H1.68625V56.1291H22.8293ZM22.831 34.6598V36.2362H1.6914V34.6598H22.831ZM22.8345 32.8961C22.831 32.9167 22.8259 32.9373 22.8225 32.9579H1.64675V32.3483C1.64675 31.7404 1.64847 31.1308 1.6519 30.5229C1.65705 29.1628 1.66221 27.7563 1.63988 26.3739C1.60554 24.3218 2.4075 22.5581 4.02002 21.1294C5.84892 19.51 8.15522 18.5998 10.8737 18.4247C12.7558 18.3027 15.2167 18.2959 17.571 19.3176C20.5024 20.5884 22.1476 22.34 22.7452 24.8301C22.807 25.086 22.8379 25.3367 22.8396 25.5719C22.8534 27.8817 22.8568 30.1657 22.862 32.7004C22.862 32.7587 22.8482 32.824 22.8328 32.8978L22.8345 32.8961ZM18.0244 1.61254C18.4486 1.61254 18.78 1.72244 18.9861 1.92852C19.1544 2.09681 19.2385 2.32864 19.2385 2.61371C19.2368 3.42941 18.5774 3.60114 18.0244 3.60286C16.5716 3.60458 15.1205 3.60458 13.6677 3.60286H11.9246H10.1782C8.7494 3.60286 7.31891 3.60286 5.89013 3.60286C5.11736 3.60286 4.64339 3.24223 4.62107 2.64118C4.61077 2.38016 4.69491 2.14833 4.86492 1.97145C5.08817 1.73962 5.45223 1.61082 5.89013 1.61082C10.2932 1.60567 14.2618 1.60567 18.0244 1.61082V1.61254ZM12.4518 14.0387C13.4444 14.0387 14.3958 14.0456 15.3145 14.0593C16.2333 14.0731 16.7622 14.6484 16.7656 15.6375C16.7656 16.0119 16.7656 16.388 16.7656 16.7915V17.2861C13.6728 16.5202 10.7002 16.5305 7.68812 17.3136C7.68812 17.1127 7.68469 16.9134 7.68297 16.716C7.67782 16.1767 7.67095 15.6684 7.69671 15.1532C7.72418 14.5814 8.37675 14.0714 9.09113 14.0611C10.2726 14.0456 11.3871 14.037 12.4518 14.037V14.0387ZM9.77117 12.3266V5.30811H14.1142V12.3266H9.77117ZM1.67079 63.0566V59.4658H22.8637C22.8637 59.701 22.8637 59.9363 22.8637 60.1716C22.8654 61.0285 22.8688 61.9129 22.8431 62.7784C22.8413 62.8574 22.6404 63.0429 22.5099 63.0669C22.0239 63.1562 21.5379 63.2489 21.0519 63.34C19.5081 63.6336 17.9128 63.9359 16.3312 64.1351C13.374 64.5077 10.2366 64.4648 7.00465 64.008C5.75619 63.8311 4.49571 63.5907 3.27644 63.3571C2.74065 63.2541 2.20486 63.1528 1.66907 63.0549L1.67079 63.0566Z" fill="#F58220"/>
</svg>
