<svg width="37" height="66" viewBox="0 0 37 66" fill="none" xmlns="http://www.w3.org/2000/svg">
<path d="M12.1219 0C13.6889 0.644037 14.1246 1.90111 14.1986 3.49054C14.376 7.26522 14.6619 11.033 14.9012 14.8042C14.9701 15.8977 15.039 16.9895 15.0803 18.0847C15.0941 18.4601 15.1991 18.6943 15.5435 18.9061C16.5096 19.4968 16.9969 20.3939 17.0141 21.5339C17.0193 21.8955 17.0141 22.2554 17.0141 22.6549H21.9012C21.9012 21.7182 21.9012 20.7814 21.9012 19.8446C21.9047 17.9917 22.7209 17.1703 24.5635 17.1686C25.6811 17.1686 26.797 17.1686 27.9146 17.1686C29.752 17.1703 30.5716 17.9969 30.5751 19.8515C30.5751 20.8175 30.5751 21.7836 30.5751 22.7806C31.7374 23.1681 32.6536 23.8104 33.0668 25.021C33.1151 25.1622 33.3682 25.2449 33.537 25.3327C34.2413 25.6978 34.9525 26.0473 35.6533 26.4176C36.4678 26.8498 36.8639 27.5455 36.8656 28.4633C36.8674 34.3285 36.8674 40.192 36.8656 46.0572C36.8656 46.9734 36.4644 47.6673 35.6499 48.0996C35.0058 48.4422 34.367 48.797 33.7006 49.0897C33.2683 49.2809 33.1202 49.5271 33.122 50.0093C33.1426 54.2834 33.1357 58.5591 33.134 62.8349C33.134 64.7205 31.8993 65.9828 30.0051 65.9914C26.933 66.0052 23.8609 65.9966 20.7888 65.9966C16.191 65.9966 11.5949 65.9931 6.99713 66C6.00008 66 5.08913 65.721 4.47437 64.9444C4.11102 64.4863 3.80622 63.8526 3.77867 63.2826C3.68912 61.5038 3.74079 59.7181 3.74767 57.9358C3.7494 57.2711 4.10758 56.8698 4.67584 56.8526C5.27683 56.8354 5.66945 57.2435 5.67462 57.934C5.68323 59.5459 5.67634 61.1559 5.67806 62.7678C5.67806 63.5823 5.98458 63.9387 6.78877 64.049C7.00058 64.0782 7.21755 64.0679 7.4328 64.0679C14.7807 64.0679 22.1268 64.0696 29.4747 64.0644C29.7726 64.0644 30.0757 64.0386 30.365 63.9715C30.935 63.8371 31.214 63.4927 31.214 62.8659C31.2036 50.5999 31.2071 38.3322 31.2053 26.0663C31.2053 25.3465 30.9074 24.9332 30.2203 24.7575C29.8914 24.6732 29.5419 24.6422 29.2026 24.6422C22.027 24.6353 14.853 24.6353 7.67733 24.6422C7.35876 24.6422 7.03157 24.6714 6.72161 24.7455C5.95703 24.9297 5.67978 25.3361 5.67978 26.2023C5.67978 35.0535 5.67978 43.9047 5.67978 52.7542C5.67978 52.9471 5.68839 53.1417 5.67634 53.3345C5.63673 53.8942 5.25961 54.2627 4.73267 54.2713C4.17129 54.2816 3.76489 53.9062 3.75628 53.3087C3.73906 51.9982 3.70979 50.686 3.76662 49.379C3.79245 48.7815 3.5858 48.4922 3.06231 48.2787C2.48887 48.0445 1.9516 47.7224 1.39367 47.4486C0.439666 46.9803 -0.00461631 46.2294 0.00399381 45.1721C0.019492 43.3898 0.0298242 41.6058 0.00054976 39.8235C-0.0183925 38.6835 0.45172 37.8914 1.47977 37.4144C1.78973 37.2698 2.09109 37.1079 2.50782 36.8961C2.10314 36.6808 1.78284 36.4966 1.44877 36.3364C0.45172 35.8577 -0.0132264 35.0828 0.00054976 33.9704C0.0263801 32.1657 0.01777 30.361 0.00399381 28.5563C-0.00461631 27.5231 0.45172 26.7947 1.36095 26.3315C1.74324 26.1369 2.12381 25.9406 2.51298 25.758C3.22934 25.4222 3.87338 25.0727 4.22984 24.2547C4.42271 23.8121 4.94792 23.4712 5.39048 23.1939C5.72972 22.9804 5.82788 22.772 5.8606 22.388C5.92259 21.6286 5.96047 20.8279 6.23772 20.1373C6.44436 19.6259 7.02813 19.2746 7.41903 18.8303C7.5964 18.6289 7.83059 18.3826 7.84609 18.1432C8.17672 13.0874 8.49013 8.0298 8.78287 2.97221C8.86553 1.54466 9.50957 0.549326 10.8321 0H12.1219ZM13.131 18.4084C13.131 18.1432 13.1413 17.9504 13.131 17.7575C12.9691 15.1452 12.8072 12.5329 12.6385 9.92058C12.4835 7.54419 12.3216 5.16951 12.1598 2.79312C12.1288 2.34367 11.96 1.94933 11.4572 1.95794C10.9957 1.96483 10.8269 2.34023 10.7976 2.76729C10.7201 3.85906 10.6409 4.9491 10.5703 6.04086C10.3671 9.18872 10.1674 12.3349 9.97107 15.4827C9.9108 16.4557 9.86086 17.4286 9.80575 18.4084H13.1327H13.131ZM33.1667 47.1042C34.3446 46.7059 34.9335 45.9356 34.9335 44.7933V43.4398C34.9335 38.606 34.937 33.774 34.9232 28.9403C34.9232 28.6665 34.8681 28.2756 34.689 28.143C34.2499 27.8227 33.7229 27.623 33.1667 27.3423V47.1042ZM23.8454 22.6481H28.6292C28.6292 21.5976 28.6464 20.5902 28.6103 19.5846C28.6051 19.4365 28.3502 19.1765 28.2039 19.173C26.8951 19.1403 25.5829 19.1403 24.2742 19.173C24.1278 19.1765 23.8695 19.433 23.8644 19.5794C23.8282 20.5851 23.8454 21.5925 23.8454 22.6481ZM7.83576 22.6446H15.0751C15.0751 22.2554 15.0924 21.9145 15.0717 21.5752C15.0252 20.8468 14.6188 20.3956 13.899 20.3836C12.251 20.356 10.6013 20.3543 8.95335 20.387C8.26454 20.4008 7.86675 20.8606 7.8392 21.5477C7.8237 21.9059 7.83576 22.264 7.83576 22.6446ZM3.72012 27.3457C3.17252 27.6195 2.68346 27.8331 2.23229 28.1069C2.08592 28.1964 1.95849 28.4444 1.95677 28.62C1.9361 30.423 1.93783 32.226 1.95677 34.0272C1.95677 34.1908 2.0687 34.425 2.19957 34.5025C2.67141 34.7797 3.17596 35.0019 3.72184 35.2722V27.344L3.72012 27.3457ZM3.68912 46.4085V38.5044C3.18285 38.7559 2.72307 38.9418 2.31667 39.207C2.1393 39.3224 1.96366 39.5997 1.96021 39.8046C1.93266 41.5662 1.93438 43.3261 1.95677 45.0877C1.95849 45.2858 2.0842 45.563 2.2409 45.6612C2.68691 45.9436 3.17941 46.152 3.68912 46.4068V46.4085Z" fill="#F58220"/>
<path d="M26.5748 42.93V36.7049H25.8481C20.8215 36.7049 15.795 36.717 10.7684 36.6912C10.1278 36.6877 9.97451 36.8909 9.99001 37.4953C10.0296 39.0417 10.0365 40.5898 9.98829 42.1345C9.96762 42.8078 10.1949 42.9628 10.8321 42.9455C12.5283 42.9025 14.2262 42.9283 15.9224 42.9318C16.7093 42.9335 17.1588 43.3089 17.1416 43.934C17.1261 44.5315 16.7025 44.8673 15.9275 44.869C14.0798 44.8742 12.2321 44.8794 10.3861 44.869C8.92408 44.8604 8.03551 43.9598 8.0269 42.4858C8.01657 40.7035 8.01657 38.9195 8.0269 37.1372C8.03551 35.6476 8.94302 34.7263 10.4446 34.7229C15.6865 34.7126 20.9283 34.7126 26.1701 34.7229C27.7045 34.7263 28.6016 35.6493 28.6068 37.1837C28.612 38.9453 28.6137 40.7069 28.6068 42.4685C28.5999 43.9736 27.7096 44.8639 26.2011 44.8708C24.4619 44.8794 22.7209 44.8759 20.9817 44.8708C20.1689 44.869 19.7349 44.5212 19.7401 43.8995C19.7453 43.2762 20.1844 42.9335 20.992 42.9318C22.6038 42.9283 24.2139 42.9318 25.8257 42.9318C26.0582 42.9318 26.2907 42.9318 26.5817 42.9318L26.5748 42.93Z" fill="#F58220"/>
<path d="M18.2506 32.2156C16.7472 32.2156 15.2456 32.2173 13.7423 32.2156C12.7366 32.2139 12.4043 31.8781 12.4043 30.8535C12.4043 30.318 12.3681 29.7738 12.4387 29.2468C12.6247 27.84 13.6596 26.8963 15.1182 26.8687C17.2432 26.8274 19.3699 26.8257 21.4931 26.8687C23.1222 26.9015 24.1881 28.0518 24.2156 29.686C24.2225 30.1371 24.226 30.5883 24.2156 31.0378C24.1967 31.8402 23.8247 32.2105 23.0171 32.2139C21.4294 32.2225 19.84 32.2156 18.2523 32.2156H18.2506ZM22.1492 30.2336C22.3851 29.1573 22.1527 28.8422 21.1367 28.8422C19.2528 28.8405 17.3689 28.8405 15.4833 28.8422C14.4673 28.8422 14.2262 29.1728 14.4862 30.2336H22.1492Z" fill="#F58220"/>
<path d="M25.1903 57.569C24.7185 57.569 24.2432 57.6 23.7731 57.5604C23.222 57.5156 22.8466 57.2315 22.8156 56.6305C22.7864 56.0708 23.1325 55.6386 23.7455 55.611C24.7099 55.568 25.6794 55.5663 26.642 55.6128C27.1896 55.6403 27.5547 55.9795 27.577 56.5702C27.5977 57.1109 27.2137 57.4949 26.6058 57.5672C26.5628 57.5724 26.5197 57.5724 26.4767 57.5724C26.0479 57.5724 25.6174 57.5724 25.1886 57.5724C25.1886 57.5707 25.1886 57.569 25.1886 57.5672L25.1903 57.569Z" fill="#F58220"/>
<path d="M11.3969 55.5938C11.8481 55.5938 12.301 55.5697 12.7487 55.599C13.3738 55.642 13.7991 56.0846 13.7785 56.6184C13.7595 57.1367 13.3514 57.5483 12.747 57.5655C11.824 57.5931 10.8992 57.5965 9.97796 57.5621C9.35975 57.5397 8.99812 57.1367 8.99812 56.584C8.99812 56.0346 9.36147 55.6696 9.97796 55.5955C10.021 55.5904 10.0641 55.5904 10.1071 55.5904C10.5359 55.5904 10.9664 55.5904 11.3952 55.5904C11.3952 55.5904 11.3952 55.5921 11.3952 55.5938H11.3969Z" fill="#F58220"/>
<path d="M18.2764 57.5724C17.8252 57.5724 17.374 57.5931 16.9246 57.5672C16.2995 57.5311 15.8673 57.0989 15.8811 56.5633C15.8948 56.0484 16.2995 55.6231 16.9005 55.6024C17.8218 55.5697 18.7482 55.568 19.6695 55.6024C20.2894 55.6265 20.6562 56.0278 20.6631 56.5719C20.67 57.1454 20.286 57.5311 19.6282 57.5672C19.1787 57.5914 18.7258 57.5724 18.2764 57.5724Z" fill="#F58220"/>
<path d="M18.2557 49.7475C17.8269 49.7475 17.3964 49.7562 16.9676 49.7458C16.3288 49.7303 15.8966 49.348 15.8793 48.8004C15.8621 48.2528 16.2875 47.8275 16.9194 47.8154C17.8424 47.7982 18.7654 47.7965 19.6884 47.8189C20.2963 47.8326 20.67 48.2287 20.6666 48.7832C20.6631 49.3256 20.267 49.7097 19.6729 49.7475C19.6523 49.7475 19.6299 49.7475 19.6092 49.7475C19.1581 49.7475 18.7069 49.7475 18.2574 49.7475H18.2557Z" fill="#F58220"/>
<path d="M11.3297 53.6359C10.8579 53.6359 10.3844 53.6583 9.91424 53.6307C9.34253 53.5963 8.9964 53.2123 8.99812 52.675C8.99812 52.1532 9.36836 51.7279 9.91941 51.7124C10.8837 51.6831 11.8515 51.6848 12.8159 51.7124C13.3893 51.7279 13.7974 52.1894 13.7785 52.7146C13.7595 53.2191 13.3703 53.6083 12.809 53.6376C12.3165 53.6617 11.8222 53.6428 11.328 53.6428C11.328 53.6428 11.328 53.6428 11.328 53.641L11.3297 53.6359Z" fill="#F58220"/>
<path d="M18.2729 53.6324C17.7787 53.6324 17.2845 53.6531 16.792 53.6273C16.2306 53.598 15.943 53.2415 15.8879 52.7146C15.8346 52.2221 16.2461 51.7313 16.7748 51.7141C17.7822 51.6796 18.793 51.6693 19.8004 51.7193C20.3308 51.7451 20.6459 52.1136 20.6648 52.6664C20.6821 53.2002 20.3222 53.5722 19.7556 53.6341C19.7126 53.6393 19.6695 53.6428 19.6265 53.6428C19.1753 53.6428 18.7241 53.6428 18.2747 53.6428C18.2747 53.6393 18.2747 53.6359 18.2747 53.6324H18.2729Z" fill="#F58220"/>
<path d="M11.3848 61.4711C10.913 61.4711 10.4395 61.4917 9.96935 61.4659C9.37697 61.4332 8.99468 61.0234 8.99985 60.4775C9.00501 59.9144 9.36836 59.5476 9.99345 59.5338C10.9165 59.5149 11.8395 59.5149 12.7625 59.5338C13.3583 59.5441 13.7699 59.9471 13.7802 60.4723C13.7905 60.9975 13.3841 61.4297 12.8021 61.4659C12.332 61.4935 11.8584 61.4711 11.3866 61.4728L11.3848 61.4711Z" fill="#F58220"/>
<path d="M25.2093 59.5338C25.6811 59.5338 26.1546 59.5149 26.6248 59.5372C27.1896 59.5648 27.5667 59.9454 27.5805 60.4603C27.5943 60.9751 27.2326 61.4349 26.6868 61.4556C25.6794 61.4935 24.6685 61.4952 23.6629 61.4504C23.1187 61.4263 22.7778 60.9596 22.8174 60.4258C22.8587 59.8713 23.179 59.5648 23.7283 59.5372C24.2208 59.5131 24.715 59.5321 25.2093 59.5321V59.5338Z" fill="#F58220"/>
<path d="M11.3952 47.8154C11.867 47.8154 12.3406 47.7982 12.8107 47.8206C13.3686 47.8482 13.7595 48.2373 13.7785 48.7436C13.7991 49.2705 13.3893 49.7269 12.8159 49.7407C11.8498 49.7648 10.8837 49.7648 9.91941 49.7407C9.37008 49.7252 8.99985 49.3033 8.99812 48.7798C8.99812 48.2442 9.3477 47.855 9.91596 47.824C10.4085 47.7965 10.9027 47.8189 11.3969 47.8189C11.3969 47.8189 11.3969 47.8189 11.3969 47.8172L11.3952 47.8154Z" fill="#F58220"/>
<path d="M18.2919 59.5321C18.7637 59.5321 19.2373 59.5149 19.7074 59.5372C20.2963 59.5648 20.6511 59.9161 20.6597 60.4568C20.6683 61.013 20.3618 61.4108 19.8417 61.4418C18.7947 61.5021 17.7374 61.5038 16.6904 61.4366C16.1704 61.4022 15.8501 60.9734 15.8914 60.4344C15.9327 59.9109 16.2461 59.5614 16.8092 59.5407C17.3017 59.5235 17.7959 59.5372 18.2902 59.5372C18.2902 59.5372 18.2902 59.5355 18.2902 59.5338L18.2919 59.5321Z" fill="#F58220"/>
<path d="M25.2075 49.7475C24.7357 49.7475 24.2621 49.763 23.792 49.7441C23.1928 49.72 22.8156 49.3308 22.8156 48.7746C22.8156 48.2149 23.1824 47.8326 23.7972 47.8189C24.7409 47.7999 25.6863 47.7982 26.6299 47.8223C27.1913 47.8361 27.5701 48.2339 27.5839 48.747C27.5994 49.2878 27.2068 49.7131 26.6248 49.7424C26.1546 49.7665 25.6811 49.7475 25.2093 49.7475H25.2075Z" fill="#F58220"/>
<path d="M25.1869 51.6986C25.638 51.6986 26.0892 51.6865 26.5387 51.702C27.1758 51.7244 27.5856 52.1205 27.5805 52.6853C27.577 53.2226 27.1861 53.6204 26.5817 53.6341C25.6587 53.6565 24.7357 53.6565 23.8144 53.6341C23.1876 53.6204 22.8243 53.2536 22.8156 52.6956C22.8053 52.1119 23.1928 51.7244 23.8368 51.7003C24.2863 51.6831 24.7374 51.6969 25.1886 51.6969L25.1869 51.6986Z" fill="#F58220"/>
</svg>
