<svg width="66" height="66" viewBox="0 0 66 66" fill="none" xmlns="http://www.w3.org/2000/svg">
<path d="M0.91513 66C-0.268082 65.1848 -0.301981 64.3648 0.802135 63.4399C2.53902 61.9839 4.35661 60.678 6.62619 60.1566C8.4115 59.7466 10.1597 59.9419 11.8998 60.4084C11.9773 60.4294 12.058 60.4471 12.2275 60.4875C11.782 58.9718 11.3607 57.5222 10.9297 56.0743C9.196 50.2454 7.4575 44.4181 5.72223 38.5892C5.38164 37.4463 5.54144 37.0412 6.58099 36.41C8.30496 35.364 10.0176 34.3002 11.7626 33.2897C12.2323 33.0169 12.405 32.7248 12.4002 32.1824C12.3744 28.8749 12.3857 25.5674 12.3889 22.2583C12.3889 21.0831 12.8457 20.6312 14.0241 20.6279C14.7327 20.6247 15.4397 20.6279 16.2533 20.6279C16.2533 19.8257 16.2533 19.0428 16.2533 18.2583C16.2533 17.7853 16.2436 17.3123 16.2565 16.841C16.2807 15.9952 16.7812 15.4883 17.6367 15.477C18.92 15.4609 20.2049 15.4722 21.5721 15.4722C21.5721 14.3519 21.5721 13.2865 21.5721 12.2195C21.5721 10.7167 21.9773 10.3148 23.4785 10.3148C25.3429 10.3148 27.2057 10.3148 29.1427 10.3148C29.1427 10.0323 29.1427 9.80468 29.1427 9.57546C29.1427 6.91203 29.1411 4.24859 29.1427 1.58515C29.1427 0.482647 29.6108 0.00807102 30.6988 0.00484262C32.2452 -0.00161421 33.7916 -0.00161421 35.338 0.00484262C36.3889 0.00968523 36.8667 0.490718 36.8683 1.54479C36.8732 4.20823 36.8683 6.87167 36.8683 9.53511C36.8683 9.76756 36.8683 10.0016 36.8683 10.3148C37.6544 10.3148 38.3986 10.3148 39.1411 10.3148C40.3647 10.3148 41.5899 10.3115 42.8134 10.3148C43.9256 10.318 44.418 10.7974 44.4341 11.9209C44.4502 13.0767 44.4373 14.2341 44.4373 15.4689C45.6399 15.4689 46.7941 15.4689 47.9466 15.4689C49.3655 15.4689 49.7561 15.8531 49.7561 17.2494C49.7561 18.3438 49.7561 19.4366 49.7561 20.6263C50.5051 20.6263 51.2251 20.6263 51.9466 20.6263C53.1831 20.6295 53.6222 21.0589 53.6222 22.2825C53.6238 25.6126 53.6334 28.9411 53.6109 32.2712C53.6076 32.7425 53.7626 32.9976 54.1613 33.2333C55.9353 34.2793 57.6899 35.3559 59.451 36.4245C60.4793 37.0492 60.6294 37.4479 60.2824 38.6118C58.1613 45.7337 56.0483 52.8555 53.9079 59.9709C53.7287 60.5682 53.8304 60.791 54.4196 61.0412C57.2622 62.2518 59.8546 61.9144 62.2355 59.9451C62.6665 59.59 63.0991 59.2365 63.5188 58.8701C64.5422 57.979 65.2186 58.0565 65.9983 59.1671V59.9403C65.0798 60.7651 64.213 61.6594 63.2331 62.4019C61.0798 64.0339 58.6165 64.7006 55.9595 64.176C54.6343 63.9145 53.3494 63.3753 52.0951 62.8475C49.7868 61.8757 47.493 61.5093 45.1443 62.6586C44.3163 63.0638 43.5011 63.4931 42.6762 63.908C40.2065 65.1493 37.6318 65.456 35.012 64.5408C33.6221 64.0549 32.2985 63.3721 30.97 62.7248C29.1411 61.8321 27.2703 61.6497 25.3606 62.3471C24.2985 62.7361 23.2993 63.2994 22.2388 63.6965C21.083 64.1275 19.9143 64.615 18.7085 64.7974C16.3372 65.1558 14.1113 64.452 12.0192 63.385C9.54951 62.1275 7.17017 62.3002 4.86993 63.7256C3.76259 64.4116 2.74402 65.2381 1.68511 66H0.911901H0.91513ZM34.2937 24.2179V24.82C34.2937 36.8281 34.2937 48.8345 34.2937 60.8426C34.2937 60.9282 34.2646 61.0299 34.3001 61.0977C34.3889 61.2639 34.4809 61.519 34.6181 61.5561C35.769 61.8612 36.9184 62.2325 38.0935 62.3761C39.6222 62.5634 40.9732 61.8806 42.2985 61.1929C43.8207 60.4036 45.351 59.5593 47.083 59.4011C48.4761 59.2736 49.8901 59.3753 51.3946 59.3753C53.4397 52.4907 55.535 45.4383 57.6367 38.3648C49.8643 33.6562 42.1306 28.9701 34.292 24.2211L34.2937 24.2179ZM8.37437 38.3632C9.07494 40.7167 9.75936 43.0137 10.4406 45.3107C12.0418 50.7086 13.648 56.1049 15.2347 61.5077C15.3606 61.9338 15.5511 62.2002 16.0047 62.2018C16.941 62.205 17.9321 62.389 18.7989 62.1437C20.1419 61.7627 21.4349 61.1509 22.6891 60.5182C24.7489 59.4802 26.8845 59.0347 29.1621 59.4366C30.0112 59.5868 30.8441 59.8305 31.6883 60.0323V24.2373C23.8885 28.9637 16.1565 33.6465 8.37276 38.3632H8.37437ZM47.1556 18.092H18.8796V20.5956H47.1556V18.092ZM28.2937 23.2526H15.0168V31.2994C19.4446 28.615 23.7997 25.9758 28.2937 23.2526ZM37.9143 23.2284C37.8966 23.2655 37.8804 23.3027 37.8627 23.3398C42.2307 25.9855 46.5971 28.6312 51.0136 31.3075V23.2284H37.9143ZM41.7707 12.9298H24.2549V15.4253H41.7707V12.9298ZM34.2501 2.61178H31.7513V10.2889H34.2501V2.61178Z" fill="#F58220"/>
<path d="M42.9151 32.7296C43.1104 32.8119 43.443 32.9056 43.7255 33.0799C46.3389 34.678 48.941 36.2922 51.5495 37.8983C52.0774 38.2228 52.4583 38.6376 52.3921 39.2978C52.3389 39.8321 52.0435 40.268 51.5108 40.3584C51.1427 40.4197 50.6714 40.381 50.3615 40.1953C47.627 38.5488 44.9151 36.8684 42.2065 35.1784C41.585 34.791 41.38 34.2228 41.5721 33.6433C41.7626 33.0718 42.1758 32.7861 42.9135 32.7312L42.9151 32.7296Z" fill="#F58220"/>
<path d="M39.6899 31.3479C39.6916 32.0242 39.0878 32.6134 38.4002 32.6053C37.7206 32.5973 37.1298 32.0016 37.1282 31.3269C37.1266 30.6328 37.6964 30.0436 38.3776 30.0355C39.0798 30.0274 39.6883 30.6376 39.6899 31.3479Z" fill="#F58220"/>
<path d="M14.2146 39.1881C14.5552 38.7377 14.7537 38.2728 15.104 38.0452C17.7642 36.3228 20.4486 34.6408 23.1363 32.9637C23.8675 32.5085 24.6843 32.6747 25.0652 33.2946C25.4591 33.9338 25.2525 34.6844 24.5019 35.1606C21.8465 36.8491 19.1799 38.5214 16.5196 40.2018C16.0257 40.5133 15.4866 40.6102 15.0184 40.2486C14.7117 40.0129 14.5277 39.6158 14.213 39.1864L14.2146 39.1881Z" fill="#F58220"/>
<path d="M28.3453 32.4907C27.6625 32.5004 27.0798 31.9419 27.054 31.2526C27.0265 30.5391 27.6028 29.9338 28.3211 29.9193C28.9813 29.9064 29.6431 30.5698 29.6351 31.2365C29.627 31.8951 29.0249 32.481 28.3453 32.4907Z" fill="#F58220"/>
</svg>
