<svg width="69" height="66" viewBox="0 0 69 66" fill="none" xmlns="http://www.w3.org/2000/svg">
    <path d="M43.2139 5.1142C43.2997 4.74314 43.3705 4.3785 43.4713 4.0203C44.2199 1.36277 46.7187 -0.263065 49.5821 0.0350768C52.3962 0.326784 54.4682 2.50386 54.6012 5.30939C54.6119 5.52174 54.6098 5.73623 54.6098 5.94857C54.6119 18.6271 54.6248 31.3056 54.6098 43.982C54.6012 52.4565 49.2046 60.1481 41.2449 63.0416C40.1617 63.4362 39.0163 63.655 37.9096 63.9939C37.6586 64.0711 37.3841 64.2642 37.2468 64.4829C36.6312 65.4653 35.799 66.0208 34.6171 65.9994C34.2375 65.993 33.8578 66.0015 33.4803 65.9973C32.5623 65.9844 31.7408 65.6283 31.3226 64.8476C30.9258 64.1076 30.3509 63.9725 29.6517 63.8159C21.5054 62.0077 15.3002 55.4122 13.936 47.1264C13.7987 46.2877 13.6786 45.4341 13.6765 44.589C13.6615 31.6037 13.6636 18.6164 13.6722 5.63113C13.6722 3.18808 14.9827 1.26196 17.1426 0.421159C19.3991 -0.458251 21.9987 0.0822648 23.5645 1.75314C24.4417 2.68832 24.8407 3.83799 25.0359 5.1142H43.2139ZM43.1968 38.1007V7.46502H25.068V38.1007H43.1968ZM30.7284 61.6753C30.7284 59.4253 30.7413 57.2739 30.707 55.1205C30.7048 54.9403 30.4153 54.6807 30.2051 54.6035C28.058 53.8121 26.2713 52.5444 24.9136 50.6934C23.247 48.4219 22.7022 45.8459 22.7108 43.0661C22.7494 30.8616 22.743 18.6571 22.7515 6.45262C22.7515 6.12016 22.7601 5.7877 22.7387 5.45739C22.6572 4.24337 22.1724 3.28031 21.0485 2.69261C19.1009 1.67378 15.9265 2.5296 15.9372 5.91425C15.9715 18.5692 15.8857 31.2241 15.9565 43.8769C15.9908 50.0285 18.629 54.9703 23.5795 58.6295C25.6793 60.1824 28.0409 61.1819 30.7284 61.6731V61.6753ZM37.5492 61.6946C38.0769 61.5766 38.493 61.5015 38.9027 61.39C46.9267 59.1915 52.3383 52.0468 52.3426 43.598C52.3491 31.1083 52.3319 18.6207 52.319 6.13089C52.319 5.72979 52.2868 5.32655 52.2246 4.92974C51.9887 3.42402 50.8069 2.42235 49.1446 2.2958C47.5959 2.17783 46.0838 3.1173 45.7106 4.49862C45.5647 5.03913 45.5326 5.62255 45.5326 6.18451C45.5326 18.5778 45.5411 30.9731 45.5583 43.3664C45.5583 44.9172 45.406 46.4379 44.8548 47.8986C43.6279 51.1459 41.3865 53.3681 38.1326 54.5864C37.901 54.6722 37.5771 54.9446 37.5728 55.1333C37.5321 57.2868 37.5471 59.4381 37.5471 61.6924L37.5492 61.6946ZM25.0509 44.9H43.2161V40.46H25.0509V44.9ZM42.6691 47.253H25.6986C25.7051 47.3452 25.6944 47.4203 25.7179 47.4803C26.6939 49.874 28.4162 51.4913 30.8443 52.3471C30.9987 52.4029 31.2861 52.2956 31.4212 52.1669C32.8862 50.7599 35.4 50.777 36.8843 52.2077C37.0023 52.3214 37.2575 52.4136 37.3991 52.3664C39.9193 51.5041 41.6224 49.7904 42.667 47.2508L42.6691 47.253ZM35.2799 58.6059C35.2799 57.2074 35.2628 55.809 35.2885 54.4105C35.3014 53.7434 35.0397 53.4324 34.3662 53.4817C34.1303 53.4989 33.8922 53.4775 33.6562 53.4903C33.2294 53.5118 33.0042 53.7434 33.0042 54.1703C33.002 57.1324 33.002 60.0945 33.0042 63.0587C33.0042 63.4856 33.2337 63.7151 33.6648 63.7279C33.9007 63.7344 34.141 63.7151 34.3748 63.7344C35.059 63.788 35.3014 63.462 35.2885 62.8013C35.2628 61.4029 35.2799 60.0044 35.2799 58.6059Z"
          fill="#F58220"/>
    <path d="M61.4499 54.6014V53.7713C61.4499 44.8142 61.4456 35.8592 61.4606 26.9021C61.4606 26.3873 61.3426 26.027 60.9222 25.6945C59.9956 24.9588 59.1205 24.1566 58.2175 23.3931C57.3317 22.6445 56.8834 21.7093 56.8962 20.5382C56.9134 18.9038 56.892 17.2694 56.9027 15.6328C56.9156 13.6509 58.5178 12.0058 60.4954 11.9672C61.8917 11.9393 63.2923 11.9393 64.6887 11.9672C66.6641 12.0079 68.2599 13.6552 68.2707 15.6392C68.2792 17.2501 68.2492 18.863 68.2814 20.4717C68.305 21.7029 67.8267 22.6681 66.9022 23.4467C66.0142 24.1931 65.1477 24.9674 64.2404 25.6903C63.85 26.0013 63.7106 26.3273 63.7127 26.827C63.7299 35.7842 63.7235 44.7391 63.7235 53.6962C63.7235 53.9751 63.7235 54.2561 63.7235 54.6014H61.4499ZM62.5824 24.0944C63.6055 23.2258 64.605 22.4257 65.5359 21.5549C65.7933 21.3125 65.9713 20.8621 65.982 20.4996C66.0292 18.9381 66.0099 17.3745 65.9992 15.8108C65.9928 14.8971 65.4952 14.2944 64.5943 14.2558C63.2709 14.2 61.9411 14.2022 60.6176 14.2515C59.7168 14.2837 59.1934 14.8778 59.1827 15.7851C59.1634 17.3487 59.1462 18.9124 59.1999 20.4738C59.2127 20.8578 59.4058 21.3318 59.6803 21.5913C60.5898 22.4514 61.5721 23.2343 62.5845 24.0944H62.5824Z"
          fill="#F58220"/>
    <path d="M4.55849 11.98H6.82779V12.7951C6.82779 21.7737 6.83208 30.7522 6.81707 39.7308C6.81707 40.2262 6.94576 40.563 7.33828 40.874C8.22627 41.5818 9.06707 42.3497 9.94648 43.0704C10.9267 43.8747 11.42 44.8721 11.39 46.1569C11.3535 47.7441 11.39 49.3314 11.3793 50.9186C11.3686 52.9327 9.75987 54.5735 7.73723 54.6121C6.38809 54.6378 5.0368 54.6378 3.68551 54.6121C1.61568 54.5714 0.0177287 52.9348 0.00914906 50.88C0.00271435 49.2692 0.0284532 47.6583 0.000569448 46.0475C-0.0187347 44.8421 0.453144 43.8983 1.35829 43.1369C2.22698 42.4033 3.07207 41.6397 3.96006 40.9319C4.4062 40.5759 4.57565 40.1962 4.5735 39.6128C4.55205 30.705 4.55849 21.7973 4.55849 12.8916V11.98ZM5.68456 42.4762C4.68504 43.3299 3.71983 44.0978 2.83184 44.9472C2.54228 45.2239 2.32135 45.7108 2.30634 46.1119C2.24628 47.6476 2.27202 49.1876 2.28489 50.7277C2.29347 51.6843 2.79967 52.2806 3.73484 52.3171C5.03466 52.3664 6.33876 52.3643 7.64071 52.3171C8.58232 52.2849 9.09924 51.6929 9.10782 50.747C9.12069 49.2091 9.14214 47.6691 9.09066 46.1312C9.0778 45.7472 8.90406 45.2668 8.63166 45.0094C7.7072 44.1343 6.70553 43.3406 5.68456 42.4762Z"
          fill="#F58220"/>
    <path d="M35.2735 21.6471C35.2735 25.1304 35.2735 28.6159 35.2735 32.0992C35.2735 32.3116 35.2992 32.5389 35.2392 32.7341C35.0654 33.2939 34.6751 33.6092 34.0723 33.5663C33.4417 33.5213 33.0535 33.1588 33.017 32.5325C32.9741 31.8011 33.0042 31.0632 33.0042 30.3297C33.0042 24.0258 33.0042 17.7198 33.0042 11.4159C33.0042 11.2508 32.9999 11.0835 33.0042 10.9183C33.0278 10.1483 33.4803 9.67427 34.171 9.69143C34.8295 9.70858 35.2671 10.1719 35.2713 10.9119C35.2799 13.5201 35.2756 16.1261 35.2756 18.7343C35.2756 19.706 35.2756 20.6776 35.2756 21.6493L35.2735 21.6471Z"
          fill="#F58220"/>
    <path d="M27.8843 23.9057C27.8843 20.4696 27.8843 17.0313 27.8843 13.5951C27.8843 13.4064 27.8736 13.2155 27.8886 13.0267C27.9422 12.4026 28.3991 11.9736 29.0039 11.965C29.6109 11.9586 30.085 12.3811 30.1472 12.9967C30.1665 13.1855 30.1536 13.3764 30.1536 13.5651C30.1536 20.4631 30.1536 27.359 30.1536 34.257C30.1536 34.3042 30.1536 34.3514 30.1536 34.3985C30.1493 35.368 29.7568 35.8592 28.9975 35.8464C28.2661 35.8335 27.8843 35.353 27.8843 34.4286C27.8822 32.3673 27.8843 30.3039 27.8843 28.2427C27.8843 26.797 27.8843 25.3514 27.8843 23.9057Z"
          fill="#F58220"/>
    <path d="M40.3934 23.9765C40.3934 27.4834 40.3934 30.9924 40.3934 34.4994C40.3934 35.2951 40.048 35.7606 39.4217 35.8421C38.7611 35.9279 38.1884 35.4925 38.1348 34.8232C38.1005 34.3986 38.1241 33.9696 38.1241 33.5449C38.1241 26.8378 38.1155 20.1285 38.1412 13.4214C38.1412 13.016 38.2999 12.4884 38.5809 12.2417C38.8276 12.0251 39.3788 12.0101 39.7435 12.1044C40.2539 12.2374 40.3998 12.7179 40.3977 13.2391C40.3891 15.68 40.3934 18.1209 40.3934 20.5639C40.3934 21.7007 40.3934 22.8397 40.3934 23.9765Z"
          fill="#F58220"/>
    <path d="M17.6789 15.4033H21.0013V17.604H17.6789V15.4033Z" fill="#F58220"/>
    <path d="M21.0378 33.6242V35.7949H17.696V33.6242H21.0378Z" fill="#F58220"/>
    <path d="M50.6203 15.4183V17.589H47.2785V15.4183H50.6203Z" fill="#F58220"/>
    <path d="M47.2592 35.8035V33.6157H50.5774V35.8035H47.2592Z" fill="#F58220"/>
</svg>
